<svg width="156" height="38" viewBox="0 0 156 38" fill="none" xmlns="http://www.w3.org/2000/svg">
<path d="M48.128 28L41.48 11.128H45.008L50.144 24.784H48.776L53.96 11.128H57.44L50.72 28H48.128ZM62.6079 28.24C61.3919 28.24 60.3119 27.984 59.3679 27.472C58.4239 26.944 57.6719 26.224 57.1119 25.312C56.5679 24.4 56.2959 23.36 56.2959 22.192C56.2959 21.04 56.5599 20.016 57.0879 19.12C57.6319 18.208 58.3679 17.488 59.2959 16.96C60.2239 16.416 61.2559 16.144 62.3919 16.144C63.5119 16.144 64.4959 16.4 65.3439 16.912C66.2079 17.408 66.8799 18.096 67.3599 18.976C67.8559 19.84 68.1039 20.824 68.1039 21.928C68.1039 22.136 68.0879 22.352 68.0559 22.576C68.0399 22.784 67.9999 23.024 67.9359 23.296L58.1919 23.32V20.968L66.4719 20.944L65.1999 21.928C65.1679 21.24 65.0399 20.664 64.8159 20.2C64.6079 19.736 64.2959 19.384 63.8799 19.144C63.4799 18.888 62.9839 18.76 62.3919 18.76C61.7679 18.76 61.2239 18.904 60.7599 19.192C60.2959 19.464 59.9359 19.856 59.6799 20.368C59.4399 20.864 59.3199 21.456 59.3199 22.144C59.3199 22.848 59.4479 23.464 59.7039 23.992C59.9759 24.504 60.3599 24.904 60.8559 25.192C61.3519 25.464 61.9279 25.6 62.5839 25.6C63.1759 25.6 63.7119 25.504 64.1919 25.312C64.6719 25.104 65.0879 24.8 65.4399 24.4L67.2879 26.248C66.7279 26.904 66.0399 27.4 65.2239 27.736C64.4239 28.072 63.5519 28.24 62.6079 28.24ZM75.5923 28.24C74.3763 28.24 73.2963 27.984 72.3523 27.472C71.4083 26.944 70.6563 26.224 70.0963 25.312C69.5523 24.4 69.2803 23.36 69.2803 22.192C69.2803 21.04 69.5443 20.016 70.0723 19.12C70.6163 18.208 71.3523 17.488 72.2803 16.96C73.2083 16.416 74.2403 16.144 75.3763 16.144C76.4963 16.144 77.4803 16.4 78.3283 16.912C79.1923 17.408 79.8643 18.096 80.3443 18.976C80.8403 19.84 81.0883 20.824 81.0883 21.928C81.0883 22.136 81.0723 22.352 81.0403 22.576C81.0243 22.784 80.9843 23.024 80.9203 23.296L71.1763 23.32V20.968L79.4563 20.944L78.1843 21.928C78.1523 21.24 78.0243 20.664 77.8003 20.2C77.5923 19.736 77.2803 19.384 76.8643 19.144C76.4643 18.888 75.9683 18.76 75.3763 18.76C74.7523 18.76 74.2083 18.904 73.7443 19.192C73.2803 19.464 72.9203 19.856 72.6643 20.368C72.4243 20.864 72.3043 21.456 72.3043 22.144C72.3043 22.848 72.4323 23.464 72.6883 23.992C72.9603 24.504 73.3443 24.904 73.8403 25.192C74.3363 25.464 74.9123 25.6 75.5683 25.6C76.1603 25.6 76.6963 25.504 77.1763 25.312C77.6563 25.104 78.0723 24.8 78.4243 24.4L80.2723 26.248C79.7123 26.904 79.0243 27.4 78.2083 27.736C77.4083 28.072 76.5363 28.24 75.5923 28.24ZM92.3281 28L86.8561 11.128H90.0721L94.1281 24.112H93.0481L97.0321 11.128H99.4561L103.44 24.112H102.336L106.416 11.128H109.632L104.136 28H101.712L97.7041 15.04H98.7601L94.7761 28H92.3281ZM114.787 28.24C113.731 28.24 112.779 27.976 111.931 27.448C111.083 26.92 110.419 26.2 109.939 25.288C109.459 24.376 109.219 23.352 109.219 22.216C109.219 21.064 109.459 20.032 109.939 19.12C110.419 18.208 111.083 17.488 111.931 16.96C112.779 16.432 113.731 16.168 114.787 16.168C115.619 16.168 116.363 16.336 117.019 16.672C117.675 17.008 118.195 17.48 118.579 18.088C118.979 18.68 119.195 19.352 119.227 20.104V24.28C119.195 25.048 118.979 25.728 118.579 26.32C118.195 26.912 117.675 27.384 117.019 27.736C116.363 28.072 115.619 28.24 114.787 28.24ZM115.363 25.336C116.243 25.336 116.955 25.048 117.499 24.472C118.043 23.88 118.315 23.12 118.315 22.192C118.315 21.584 118.187 21.048 117.931 20.584C117.691 20.104 117.347 19.736 116.899 19.48C116.467 19.208 115.955 19.072 115.363 19.072C114.787 19.072 114.275 19.208 113.827 19.48C113.395 19.736 113.051 20.104 112.795 20.584C112.555 21.048 112.435 21.584 112.435 22.192C112.435 22.816 112.555 23.368 112.795 23.848C113.051 24.312 113.395 24.68 113.827 24.952C114.275 25.208 114.787 25.336 115.363 25.336ZM118.147 28V24.88L118.651 22.048L118.147 19.264V16.408H121.267V28H118.147ZM125.752 28V11.584H128.896V28H125.752ZM123.04 19.168V16.408H131.608V19.168H123.04ZM138.639 28.24C137.423 28.24 136.343 27.984 135.399 27.472C134.455 26.944 133.703 26.224 133.143 25.312C132.599 24.4 132.327 23.36 132.327 22.192C132.327 21.04 132.591 20.016 133.119 19.12C133.663 18.208 134.399 17.488 135.327 16.96C136.255 16.416 137.287 16.144 138.423 16.144C139.543 16.144 140.527 16.4 141.375 16.912C142.239 17.408 142.911 18.096 143.391 18.976C143.887 19.84 144.135 20.824 144.135 21.928C144.135 22.136 144.119 22.352 144.087 22.576C144.071 22.784 144.031 23.024 143.967 23.296L134.223 23.32V20.968L142.503 20.944L141.231 21.928C141.199 21.24 141.071 20.664 140.847 20.2C140.639 19.736 140.327 19.384 139.911 19.144C139.511 18.888 139.015 18.76 138.423 18.76C137.799 18.76 137.255 18.904 136.791 19.192C136.327 19.464 135.967 19.856 135.711 20.368C135.471 20.864 135.351 21.456 135.351 22.144C135.351 22.848 135.479 23.464 135.735 23.992C136.007 24.504 136.391 24.904 136.887 25.192C137.383 25.464 137.959 25.6 138.615 25.6C139.207 25.6 139.743 25.504 140.223 25.312C140.703 25.104 141.119 24.8 141.471 24.4L143.319 26.248C142.759 26.904 142.071 27.4 141.255 27.736C140.455 28.072 139.583 28.24 138.639 28.24ZM146.08 28V16.408H149.224V28H146.08ZM149.224 21.592L148 20.776C148.144 19.352 148.56 18.232 149.248 17.416C149.936 16.584 150.928 16.168 152.224 16.168C152.784 16.168 153.288 16.264 153.736 16.456C154.184 16.632 154.592 16.928 154.96 17.344L152.992 19.6C152.816 19.408 152.6 19.264 152.344 19.168C152.104 19.072 151.824 19.024 151.504 19.024C150.832 19.024 150.28 19.24 149.848 19.672C149.432 20.088 149.224 20.728 149.224 21.592Z" fill="#1E1926"/>
<g clip-path="url(#clip0_0_469)">
<path d="M19 4.90833L11.1625 12.7458C9.61259 14.2959 8.55711 16.2708 8.12955 18.4207C7.70199 20.5706 7.92155 22.799 8.76045 24.8242C9.59935 26.8493 11.0199 28.5803 12.8426 29.7981C14.6652 31.0159 16.808 31.6659 19 31.6659C21.192 31.6659 23.3348 31.0159 25.1575 29.7981C26.9801 28.5803 28.4007 26.8493 29.2396 24.8242C30.0785 22.799 30.298 20.5706 29.8705 18.4207C29.4429 16.2708 28.3874 14.2959 26.8375 12.7458L19 4.90833ZM19 0.430664L29.0763 10.507C31.0692 12.4999 32.4264 15.039 32.9762 17.8032C33.526 20.5675 33.2438 23.4326 32.1653 26.0365C31.0867 28.6403 29.2603 30.8659 26.9169 32.4317C24.5735 33.9975 21.8184 34.8332 19 34.8332C16.1816 34.8332 13.4265 33.9975 11.0831 32.4317C8.73975 30.8659 6.91329 28.6403 5.83474 26.0365C4.75619 23.4326 4.47398 20.5675 5.0238 17.8032C5.57363 15.039 6.93079 12.4999 8.92367 10.507L19 0.430664ZM11.0831 17L19 26.0365L27 17C27 19.0996 26.0826 24.6966 24.5979 26.1813C23.1133 27.6659 21.0996 29 19 29C16.9004 29 14.8867 27.6659 13.4021 26.1813C11.9174 24.6966 11.0831 19.0996 11.0831 17Z" fill="url(#paint0_linear_0_469)"/>
</g>
<defs>
<linearGradient id="paint0_linear_0_469" x1="19" y1="0.430664" x2="19" y2="34.8332" gradientUnits="userSpaceOnUse">
<stop stop-color="#46B0E2"/>
<stop offset="0.463542" stop-color="#56B5EB"/>
<stop offset="1" stop-color="#1B18F9"/>
</linearGradient>
<clipPath id="clip0_0_469">
<rect width="38" height="38" fill="white"/>
</clipPath>
</defs>
</svg>
